#!OML:ASF X:\für Bonn\!DataBase\2005_08_10_Bjorn_Final\c3d\bjorn.ASF
:FULLY-SPECIFIED
:DEGREES
101
root -3.04214 17.0801 18.1913 -359.152 -197.844 349.473
lowerback 39.5189 -11.3807 5.68572
upperback 23.7513 -3.02596 3.31559
thorax 7.06661 2.11001 1.94688
lowerneck 4.67456 -8.1854 4.03593
upperneck 5.36585 -10.4759 -0.436076
head 0.654123 -5.06069 -0.676411
rclavicle 3.18055e-014 8.74653e-014
rhumerus -173.13 -160.657 112.662
rradius 26.7462
rwrist 10.0436
rhand -12.5503 12.2071
rfingers 7.12502
rthumb 13.5266 -17.3336
lclavicle 3.18055e-014 8.74653e-014
lhumerus -361.093 -13.0379 -282.055
lradius 51.0417
lwrist -11.2576
lhand -22.4645 -8.9444
lfingers 7.12502
lthumb 3.96022 20.9985
rfemur -46.0969 -5.35745 -3.90152
rtibia 59.8015
rfoot -15.0534 13.3063
rtoes -17.1083
lfemur -41.425 10.0502 -29.5743
ltibia 64.1221
lfoot -21.8403 13.1928
ltoes -14.4532
102
root -3.05199 16.9834 18.2213 -358.975 -198.05 349.336
lowerback 39.8519 -11.5053 5.89227
upperback 23.6676 -3.06166 3.44705
thorax 6.87652 2.09211 1.99805
lowerneck 4.77575 -8.28877 4.00341
upperneck 5.16957 -10.6125 -0.440334
head 0.576313 -5.13357 -0.660053
rclavicle -1.30403e-013 -9.22361e-014
rhumerus -172.503 -160.119 112.852
rradius 26.3185
rwrist 10.3602
rhand -12.7583 12.4592
rfingers 7.12502
rthumb 13.3262 -17.0947
lclavicle -1.30403e-013 -9.22361e-014
lhumerus -360.84 -13.2924 -282.272
lradius 50.877
lwrist -11.6313
lhand -22.3105 -8.66839
lfingers 7.12502
lthumb 4.10895 21.2717
rfemur -47.2848 -5.51779 -4.03798
rtibia 61.0017
rfoot -15.2031 13.5676
rtoes -17.4507
lfemur -42.533 10.0066 -29.7667
ltibia 65.3839
lfoot -22.2032 13.3933
ltoes -14.6216
103
root -3.06003 16.8844 18.2501 -358.82 -198.231 349.198
lowerback 40.1843 -11.6303 6.08453
upperback 23.584 -3.09739 3.58202
thorax 6.68942 2.07309 2.06101
lowerneck 4.79771 -8.40774 3.99257
upperneck 5.03972 -10.7717 -0.470945
head 0.528726 -5.21604 -0.659932
rclavicle 6.36111e-015 -3.85642e-014
rhumerus -171.868 -159.505 113.001
rradius 25.8886
rwrist 10.7948
rhand -13.0019 12.6918
rfingers 7.12502
rthumb 13.0914 -16.8774
lclavicle 6.36111e-015 -3.85642e-014
lhumerus -360.603 -13.5983 -282.517
lradius 50.7606
lwrist -11.9265
lhand -22.3274 -8.41904
lfingers 7.12502
lthumb 4.09264 21.5214
rfemur -48.4435 -5.69939 -4.17015
rtibia 62.2083
rfoot -15.3612 13.872
rtoes -17.647
lfemur -43.6182 9.9754 -29.9571
ltibia 66.6517
lfoot -22.5322 13.6411
ltoes -15.0139
104
root -3.06648 16.7831 18.2789 -358.665 -198.424 349.1
lowerback 40.5048 -11.7451 6.29809
upperback 23.5108 -3.10937 3.70676
thorax 6.51806 2.07084 2.09687
lowerneck 4.65036 -8.52038 3.97013
upperneck 5.05036 -10.9335 -0.430775
head 0.556126 -5.29816 -0.648894
rclavicle 3.81667e-014 5.08889e-014
rhumerus -171.215 -158.767 113.08
rradius 25.4322
rwrist 11.3136
rhand -13.1947 12.9174
rfingers 7.12502
rthumb 12.9055 -16.6636
lclavicle 3.81667e-014 5.08889e-014
lhumerus -360.325 -13.9422 -282.819
lradius 50.6311
lwrist -12.1944
lhand -22.5456 -8.21496
lfingers 7.12502
lthumb 3.88188 21.7294
rfemur -49.6043 -5.86782 -4.25174
rtibia 63.4179
rfoot -15.5143 14.1382
rtoes -18.0683
lfemur -44.7024 9.9938 -30.1007
ltibia 67.9243
lfoot -22.8738 13.8334
ltoes -15.3428
105
root -3.07284 16.6801 18.3064 -358.533 -198.616 349.023
lowerback 40.8357 -11.8571 6.52275
upperback 23.4381 -3.10599 3.83699
thorax 6.34624 2.07826 2.1298
lowerneck 4.41551 -8.61844 3.99453
upperneck 5.13485 -11.0766 -0.43936
head 0.615337 -5.36877 -0.666515
rclavicle -3.18055e-014 1.52269e-013
rhumerus -170.529 -157.959 113.137
rradius 24.9054
rwrist 11.8546
rhand -13.4099 13.2195
rfingers 7.12502
rthumb 12.6981 -16.3745
lclavicle -3.18055e-014 1.52269e-013
lhumerus -360.068 -14.3572 -283.152
lradius 50.5548
lwrist -12.3783
lhand -22.8227 -7.90219
lfingers 7.12502
lthumb 3.61429 22.0469
rfemur -50.7355 -6.06363 -4.30397
rtibia 64.6291
rfoot -15.6644 14.4712
rtoes -18.3467
lfemur -45.747 10.023 -30.2189
ltibia 69.2027
lfoot -23.1886 14.042
ltoes -15.7371
106
root -3.07755 16.5752 18.3333 -358.434 -198.802 348.943
lowerback 41.1852 -11.9716 6.72899
upperback 23.3639 -3.10685 3.93866
thorax 6.16878 2.08474 2.14341
lowerneck 4.12774 -8.70104 4.05147
upperneck 5.25217 -11.2015 -0.451168
head 0.691686 -5.42964 -0.69437
rclavicle -3.49861e-014 -1.59028e-015
rhumerus -169.866 -157.16 113.136
rradius 24.3982
rwrist 12.3871
rhand -13.6471 13.4581
rfingers 7.12502
rthumb 12.4693 -16.1499
lclavicle -3.49861e-014 -1.59028e-015
lhumerus -359.831 -14.7661 -283.535
lradius 50.4956
lwrist -12.5567
lhand -23.1259 -7.62552
lfingers 7.12502
lthumb 3.32151 22.3283
rfemur -51.8315 -6.26455 -4.3532
rtibia 65.8458
rfoot -15.8283 14.7985
rtoes -18.7767
lfemur -46.7596 10.0716 -30.3272
ltibia 70.4798
lfoot -23.5363 14.2117
ltoes -16.087
107
root -3.08252 16.4687 18.3592 -358.351 -198.99 348.869
lowerback 41.5269 -12.0757 6.94576
upperback 23.2922 -3.09006 4.0233
thorax 5.9969 2.10332 2.12885
lowerneck 3.87769 -8.77438 4.21131
upperneck 5.2843 -11.3129 -0.461959
head 0.730549 -5.48463 -0.733628
rclavicle 8.5875e-014 5.1684e-014
rhumerus -169.196 -156.243 113.068
rradius 23.8749
rwrist 12.9962
rhand -13.8639 13.7037
rfingers 7.12502
rthumb 12.2603 -15.9169
lclavicle 8.5875e-014 5.1684e-014
lhumerus -359.564 -15.2261 -283.966
lradius 50.4393
lwrist -12.6753
lhand -23.4727 -7.33681
lfingers 7.12502
lthumb 2.98664 22.622
rfemur -52.9215 -6.51917 -4.37675
rtibia 67.0594
rfoot -15.9539 15.1729
rtoes -19.1238
lfemur -47.759 10.1302 -30.4279
ltibia 71.7612
lfoot -23.8626 14.4034
ltoes -16.3752
108
root -3.08533 16.3602 18.3838 -358.288 -199.187 348.769
lowerback 41.8625 -12.1542 7.09066
upperback 23.2294 -3.0662 4.11454
thorax 5.8409 2.11691 2.15455
lowerneck 3.54906 -8.82778 4.37716
upperneck 5.35726 -11.4022 -0.505323
head 0.792946 -5.52808 -0.789456
rclavicle -1.145e-013 5.64548e-014
rhumerus -168.491 -155.357 112.992
rradius 23.3282
rwrist 13.5621
rhand -14.0907 13.955
rfingers 7.12502
rthumb 12.0417 -15.6785
lclavicle -1.145e-013 5.64548e-014
lhumerus -359.284 -15.688 -284.417
lradius 50.3988
lwrist -12.7312
lhand -23.8835 -7.00725
lfingers 7.12502
lthumb 2.58987 22.9568
rfemur -54.0077 -6.77735 -4.41691
rtibia 68.2773
rfoot -16.077 15.5653
rtoes -19.453
lfemur -48.7293 10.2043 -30.5398
ltibia 73.0308
lfoot -24.2575 14.5327
ltoes -16.5574
109
root -3.08785 16.25 18.4077 -358.237 -199.368 348.675
lowerback 42.187 -12.2343 7.25743
upperback 23.1709 -3.03394 4.19087
thorax 5.69298 2.13994 2.15154
lowerneck 3.21093 -8.87769 4.5777
upperneck 5.42509 -11.4908 -0.503227
head 0.85632 -5.57094 -0.837775
rclavicle -4.77083e-014 4.81059e-014
rhumerus -167.812 -154.506 112.921
rradius 22.7953
rwrist 14.0404
rhand -14.3037 14.1318
rfingers 7.12502
rthumb 11.8362 -15.5137
lclavicle -4.77083e-014 4.81059e-014
lhumerus -358.955 -16.1314 -284.859
lradius 50.3456
lwrist -12.7684
lhand -24.276 -6.66892
lfingers 7.12502
lthumb 2.21077 23.2994
rfemur -55.0799 -7.1015 -4.43847
rtibia 69.4886
rfoot -16.2093 16.0236
rtoes -19.6788
lfemur -49.6874 10.2741 -30.651
ltibia 74.2977
lfoot -24.5963 14.7161
ltoes -16.9159
110
root -3.08969 16.1388 18.4309 -358.212 -199.56 348.579
lowerback 42.5053 -12.3062 7.38592
upperback 23.1302 -3.00033 4.26469
thorax 5.5692 2.16202 2.16511
lowerneck 2.89486 -8.92659 4.7846
upperneck 5.44038 -11.5793 -0.508264
head 0.899086 -5.61505 -0.886715
rclavicle -6.36111e-014 5.32743e-014
rhumerus -167.068 -153.599 112.777
rradius 22.24
rwrist 14.5674
rhand -14.5192 14.3165
rfingers 7.12502
rthumb 11.6285 -15.3409
lclavicle -6.36111e-014 5.32743e-014
lhumerus -358.627 -16.5587 -285.329
lradius 50.3369
lwrist -12.7603
lhand -24.6934 -6.31213
lfingers 7.12502
lthumb 1.8077 23.66
rfemur -56.1361 -7.47528 -4.43109
rtibia 70.7003
rfoot -16.3024 16.4995
rtoes -19.9596
lfemur -50.6062 10.386 -30.7625
ltibia 75.5572
lfoot -24.9466 14.8666
ltoes -17.162
111
root -3.09085 16.0274 18.4532 -358.184 -199.751 348.483
lowerback 42.9163 -12.3869 7.52761
upperback 22.9737 -2.95436 4.31072
thorax 5.47372 2.18746 2.17307
lowerneck 2.54526 -8.9675 5.04445
upperneck 5.47577 -11.6588 -0.548679
head 0.94881 -5.6536 -0.957295
rclavicle -1.59028e-013 -1.04163e-013
rhumerus -166.287 -152.648 112.584
rradius 21.6834
rwrist 15.1586
rhand -14.7456 14.459
rfingers 7.12502
rthumb 11.4101 -15.2105
lclavicle -1.59028e-013 -1.04163e-013
lhumerus -358.295 -17.0402 -285.855
lradius 50.3928
lwrist -12.598
lhand -25.1621 -5.91688
lfingers 7.12502
lthumb 1.35497 24.0586
rfemur -57.2005 -7.90623 -4.39735
rtibia 71.901
rfoot -16.3812 17.0363
rtoes -20.2741
lfemur -51.5346 10.4779 -30.8679
ltibia 76.8088
lfoot -25.274 15.0687
ltoes -17.5605
112
root -3.08959 15.9135 18.4752 -358.147 -199.945 348.388
lowerback 43.1863 -12.4165 7.66499
upperback 22.9249 -2.88095 4.38909
thorax 5.35166 2.22635 2.17235
lowerneck 2.25918 -9.0371 5.26825
upperneck 5.5106 -11.7759 -0.513126
head 0.993652 -5.71026 -0.99609
rclavicle -8.90555e-014 -6.63941e-014
rhumerus -165.685 -151.775 112.533
rradius 21.2234
rwrist 15.582
rhand -14.941 14.5579
rfingers 7.12502
rthumb 11.2217 -15.122
lclavicle -8.90555e-014 -6.63941e-014
lhumerus -357.996 -17.5681 -286.369
lradius 50.5238
lwrist -12.3442
lhand -25.5479 -5.51848
lfingers 7.12502
lthumb 0.982372 24.459
rfemur -58.2907 -8.37076 -4.34342
rtibia 73.1034
rfoot -16.4172 17.6091
rtoes -20.3873
lfemur -52.4674 10.6063 -30.9727
ltibia 78.057
lfoot -25.6284 15.2044
ltoes -17.7995
113
root -3.0888 15.8017 18.4963 -358.148 -200.141 348.312
lowerback 43.475 -12.4578 7.74732
upperback 22.9128 -2.81977 4.48168
thorax 5.27056 2.25884 2.22057
lowerneck 1.87168 -9.08713 5.41514
upperneck 5.63791 -11.8736 -0.51077
head 1.08714 -5.75597 -1.04256
rclavicle 1.30403e-013 -5.08889e-014
rhumerus -165 -150.965 112.44
rradius 20.7598
rwrist 16.018
rhand -15.1748 14.5858
rfingers 7.12502
rthumb 10.9961 -15.1062
lclavicle 1.30403e-013 -5.08889e-014
lhumerus -357.7 -17.9713 -286.86
lradius 50.7162
lwrist -11.9809
lhand -25.917 -5.14924
lfingers 7.12502
lthumb 0.625897 24.8296
rfemur -59.3248 -8.81613 -4.26359
rtibia 74.2867
rfoot -16.4964 18.1398
rtoes -20.7754
lfemur -53.3341 10.7214 -31.0451
ltibia 79.2783
lfoot -25.9606 15.4234
ltoes -18.1009
114
root -3.0861 15.6872 18.517 -358.135 -200.334 348.237
lowerback 43.7274 -12.4772 7.8589
upperback 22.886 -2.73744 4.56233
thorax 5.18077 2.30258 2.23277
lowerneck 1.55171 -9.15805 5.68416
upperneck 5.72828 -11.9921 -0.571834
head 1.14661 -5.8109 -1.1221
rclavicle 3.49861e-014 3.37934e-014
rhumerus -164.438 -150.195 112.415
rradius 20.3471
rwrist 16.2954
rhand -15.3735 14.613
rfingers 7.12502
rthumb 10.8045 -15.0891
lclavicle 3.49861e-014 3.37934e-014
lhumerus -357.372 -18.4269 -287.384
lradius 50.9004
lwrist -11.5665
lhand -26.2847 -4.80819
lfingers 7.12502
lthumb 0.270781 25.1714
rfemur -60.3794 -9.29479 -4.16498
rtibia 75.4647
rfoot -16.5313 18.7283
rtoes -20.9456
lfemur -54.2252 10.8553 -31.1154
ltibia 80.5097
lfoot -26.3021 15.583
ltoes -18.3723
115
root -3.08454 15.5748 18.535 -358.129 -200.49 348.162
lowerback 43.9452 -12.5238 7.98429
upperback 22.8636 -2.68596 4.64229
thorax 5.10501 2.33341 2.24748
lowerneck 1.18538 -9.22535 5.86978
upperneck 5.9331 -12.1092 -0.608791
head 1.25642 -5.86218 -1.18908
rclavicle 5.08889e-014 4.47266e-014
rhumerus -163.917 -149.471 112.402
rradius 20.005
rwrist 16.5861
rhand -15.5699 14.5431
rfingers 7.12502
rthumb 10.6151 -15.1688
lclavicle 5.08889e-014 4.47266e-014
lhumerus -357.091 -18.8501 -287.913
lradius 51.1377
lwrist -11.0488
lhand -26.6885 -4.44818
lfingers 7.12502
lthumb -0.119237 25.5315
rfemur -61.3805 -9.78792 -4.07436
rtibia 76.6217
rfoot -16.6287 19.2454
rtoes -21.3321
lfemur -55.0627 10.9399 -31.1825
ltibia 81.7077
lfoot -26.6598 15.7237
ltoes -18.5028
